<svg width="112" height="112" viewBox="0 0 112 112" fill="none" xmlns="http://www.w3.org/2000/svg">
<path d="M12.1334 48.5342C10.2892 50.4031 9.26305 52.928 9.28055 55.5535C9.29806 58.179 10.3578 60.69 12.2267 62.5342C14.0956 64.3783 16.6205 65.4045 19.246 65.387C21.8716 65.3695 24.3826 64.3097 26.2267 62.4409L56 32.6675L85.8667 62.5342C86.7924 63.447 87.8888 64.1686 89.0934 64.6576C90.2979 65.1467 91.587 65.3938 92.887 65.3847C94.187 65.3756 95.4725 65.1105 96.6701 64.6046C97.8677 64.0987 98.9539 63.3619 99.8667 62.4362C100.78 61.5105 101.501 60.4141 101.99 59.2095C102.479 58.005 102.726 56.7159 102.717 55.4159C102.708 54.1159 102.443 52.8304 101.937 51.6328C101.431 50.4352 100.694 49.349 99.7687 48.4362L63.9334 12.6009C62.8913 11.5551 61.6528 10.7258 60.289 10.1604C58.9252 9.59506 57.4631 9.30491 55.9868 9.30665C54.5105 9.30838 53.0491 9.60197 51.6867 10.1705C50.3243 10.7391 49.0877 11.5714 48.048 12.6195L12.1334 48.5342Z" stroke="url(#paint0_linear_13174_467)" stroke-width="9.33333" stroke-linecap="round" stroke-linejoin="round"/>
<path d="M93.3334 65.333V93.333C93.3334 95.8084 92.35 98.1823 90.5997 99.9327C88.8493 101.683 86.4754 102.666 84 102.666H28C25.5247 102.666 23.1507 101.683 21.4004 99.9327C19.65 98.1823 18.6667 95.8084 18.6667 93.333V65.333" stroke="url(#paint1_linear_13174_467)" stroke-width="9.33333" stroke-linecap="round" stroke-linejoin="round"/>
<path d="M65.3334 102.666V74.6663C65.3334 72.191 64.35 69.817 62.5997 68.0667C60.8493 66.3163 58.4754 65.333 56 65.333C53.5247 65.333 51.1507 66.3163 49.4004 68.0667C47.65 69.817 46.6667 72.191 46.6667 74.6663V102.666" stroke="url(#paint2_linear_13174_467)" stroke-width="9.33333" stroke-linecap="round" stroke-linejoin="round"/>
<defs>
<linearGradient id="paint0_linear_13174_467" x1="120.132" y1="2.39529" x2="9.18575" y2="26.2755" gradientUnits="userSpaceOnUse">
<stop offset="0.480311" stop-color="#D82028"/>
<stop offset="0.753577" stop-color="#B51B22"/>
<stop offset="1" stop-color="#721115"/>
</linearGradient>
<linearGradient id="paint1_linear_13174_467" x1="107.249" y1="60.7321" x2="20.2889" y2="83.2004" gradientUnits="userSpaceOnUse">
<stop offset="0.480311" stop-color="#D82028"/>
<stop offset="0.753577" stop-color="#B51B22"/>
<stop offset="1" stop-color="#721115"/>
</linearGradient>
<linearGradient id="paint2_linear_13174_467" x1="68.8124" y1="60.7321" x2="45.7173" y2="62.2239" gradientUnits="userSpaceOnUse">
<stop offset="0.480311" stop-color="#D82028"/>
<stop offset="0.753577" stop-color="#B51B22"/>
<stop offset="1" stop-color="#721115"/>
</linearGradient>
</defs>
</svg>
