<svg width="125" height="125" viewBox="0 0 125 125" fill="none" xmlns="http://www.w3.org/2000/svg">
<path d="M36.4583 31.2493V26.041C36.4583 18.6764 36.4583 14.9941 38.7499 12.7077C41.0312 10.416 44.7135 10.416 52.0833 10.416H72.9166C80.2812 10.416 83.9635 10.416 86.2499 12.7077C88.5416 14.9889 88.5416 18.6712 88.5416 26.041V31.2493C88.5416 38.6139 88.5416 42.2962 86.2499 44.5827C83.9687 46.8744 80.2864 46.8744 72.9166 46.8744H67.7083L52.0833 57.291V46.8744C44.7187 46.8744 41.0364 46.8744 38.7499 44.5827C36.4583 42.3014 36.4583 38.6191 36.4583 31.2493ZM18.6978 97.6035C15.4218 99.8014 6.83847 104.281 12.0676 109.885C14.6197 112.624 17.4687 114.583 21.0416 114.583H41.4583C45.0312 114.583 47.8801 112.624 50.4322 109.885C55.6614 104.281 47.078 99.8014 43.802 97.6087C40.099 95.0942 35.726 93.7498 31.2499 93.7498C26.7738 93.7498 22.4009 95.089 18.6978 97.6035ZM81.1978 97.6035C77.9218 99.8014 69.3385 104.281 74.5676 109.885C77.1197 112.624 79.9687 114.583 83.5416 114.583H103.958C107.531 114.583 110.38 112.624 112.932 109.885C118.161 104.281 109.578 99.8014 106.302 97.6087C102.599 95.0942 98.226 93.7498 93.7499 93.7498C89.2738 93.7498 84.9009 95.089 81.1978 97.6035ZM41.6666 70.3119C41.6666 73.0745 40.5691 75.724 38.6156 77.6775C36.6621 79.631 34.0126 80.7285 31.2499 80.7285C28.4873 80.7285 25.8377 79.631 23.8842 77.6775C21.9307 75.724 20.8333 73.0745 20.8333 70.3119C20.8333 67.5492 21.9307 64.8997 23.8842 62.9462C25.8377 60.9927 28.4873 59.8952 31.2499 59.8952C34.0126 59.8952 36.6621 60.9927 38.6156 62.9462C40.5691 64.8997 41.6666 67.5492 41.6666 70.3119ZM104.167 70.3119C104.167 73.0745 103.069 75.724 101.116 77.6775C99.1621 79.631 96.5126 80.7285 93.7499 80.7285C90.9872 80.7285 88.3377 79.631 86.3842 77.6775C84.4307 75.724 83.3333 73.0745 83.3333 70.3119C83.3333 67.5492 84.4307 64.8997 86.3842 62.9462C88.3377 60.9927 90.9872 59.8952 93.7499 59.8952C96.5126 59.8952 99.1621 60.9927 101.116 62.9462C103.069 64.8997 104.167 67.5492 104.167 70.3119Z" stroke="url(#paint0_linear_13174_460)" stroke-width="7.8125" stroke-linecap="round" stroke-linejoin="round"/>
<defs>
<linearGradient id="paint0_linear_13174_460" x1="133.996" y1="-2.42144" x2="6.70662" y2="14.0222" gradientUnits="userSpaceOnUse">
<stop offset="0.480311" stop-color="#D82028"/>
<stop offset="0.753577" stop-color="#B51B22"/>
<stop offset="1" stop-color="#721115"/>
</linearGradient>
</defs>
</svg>
