<svg width="117" height="117" viewBox="0 0 117 117" fill="none" xmlns="http://www.w3.org/2000/svg">
<path d="M35.1 54.6H31.2V62.4H35.1V54.6ZM81.9 62.4H85.8V54.6H81.9V62.4ZM35.1 31.2H31.2V39H35.1V31.2ZM50.7 39H54.6V31.2H50.7V39ZM81.9 3.9L84.6612 1.1388L83.5146 0H81.9V3.9ZM105.3 27.3H109.2V25.6854L108.061 24.5388L105.3 27.3ZM58.5 89.7L60.2472 93.1866L60.5592 93.0306L60.84 92.82L58.5 89.7ZM35.1 62.4H81.9V54.6H35.1V62.4ZM35.1 39H50.7V31.2H35.1V39ZM97.5 109.2H19.5V117H97.5V109.2ZM15.6 105.3V11.7H7.79999V105.3H15.6ZM19.5 7.8H81.9V0H19.5V7.8ZM101.4 27.3V105.3H109.2V27.3H101.4ZM79.1388 6.6612L102.539 30.0612L108.061 24.5388L84.6612 1.1388L79.1388 6.6612ZM19.5 109.2C18.4656 109.2 17.4737 108.789 16.7423 108.058C16.0109 107.326 15.6 106.334 15.6 105.3H7.79999C7.79999 108.403 9.03266 111.379 11.2268 113.573C13.421 115.767 16.397 117 19.5 117V109.2ZM97.5 117C100.603 117 103.579 115.767 105.773 113.573C107.967 111.379 109.2 108.403 109.2 105.3H101.4C101.4 106.334 100.989 107.326 100.258 108.058C99.5263 108.789 98.5343 109.2 97.5 109.2V117ZM15.6 11.7C15.6 10.6657 16.0109 9.67368 16.7423 8.94228C17.4737 8.21089 18.4656 7.8 19.5 7.8V0C16.397 0 13.421 1.23267 11.2268 3.42685C9.03266 5.62103 7.79999 8.59697 7.79999 11.7H15.6ZM42.6972 90.9324C43.563 88.335 46.0278 85.9248 49.1712 85.0824C52.1118 84.2946 55.8948 84.8094 59.6388 88.5612L65.1612 83.0388C59.5452 77.4228 52.923 75.9954 47.151 77.5476C41.5896 79.0452 37.0344 83.265 35.295 88.4676L42.6972 90.9324ZM59.6388 88.5612C59.8573 88.7751 60.0631 89.0017 60.255 89.2398L66.417 84.4506C66.0271 83.9577 65.6077 83.4889 65.1612 83.0466L59.6388 88.5612ZM60.255 89.2398C60.8634 90.0198 60.723 90.2694 60.7464 90.0978C60.762 89.9886 60.7932 90.168 60.3252 90.5892C59.6508 91.1529 58.8861 91.5986 58.0632 91.9074C57.0741 92.3039 56.043 92.5865 54.99 92.7498C54.3458 92.8573 53.6907 92.8835 53.04 92.8278C52.9074 92.7966 53.1804 92.8278 53.586 93.1164C54.0815 93.5017 54.4458 94.0309 54.6287 94.6314C54.8116 95.2319 54.8043 95.8742 54.6078 96.4704C54.5643 96.5999 54.504 96.7232 54.4284 96.837C54.4128 96.8526 54.5454 96.681 54.99 96.3144C55.8792 95.5968 57.5172 94.5516 60.2472 93.1944L56.7528 86.2134C53.82 87.6798 51.5996 89.024 50.0916 90.246C49.3258 90.8467 48.6438 91.5471 48.0636 92.3286C47.3253 93.3119 46.9405 94.5157 46.9716 95.745C47.0053 96.4643 47.2018 97.1666 47.5463 97.7989C47.8909 98.4312 48.3744 98.9771 48.9606 99.3954C49.842 100.051 50.817 100.331 51.5346 100.48C52.9932 100.768 54.6546 100.69 56.16 100.464C59.124 100.012 62.9616 98.7324 65.5746 96.3612C66.9318 95.121 68.2188 93.3426 68.4918 91.0104C68.7726 88.6236 67.9146 86.385 66.4092 84.4584L60.255 89.2398ZM60.84 92.82C62.0895 91.868 63.4454 91.0644 64.8804 90.4254L61.7838 83.265C59.9118 84.071 58.0372 85.176 56.16 86.58L60.84 92.82ZM64.8804 90.4254C69.9504 88.2336 74.4822 89.388 79.1232 91.5954C80.2828 92.1622 81.4372 92.7602 82.5864 93.3894C83.7096 93.9978 84.8952 94.6452 86.0184 95.2224C88.1712 96.3066 90.8388 97.5 93.6 97.5V89.7C92.8668 89.7 91.6656 89.3334 89.544 88.2648C88.5456 87.75 87.5004 87.1728 86.2992 86.5254C85.1292 85.8936 83.8344 85.1994 82.4772 84.5598C77.0328 81.9624 69.9114 79.755 61.7838 83.265L64.8804 90.4254Z" fill="url(#paint0_linear_13174_514)"/>
<defs>
<linearGradient id="paint0_linear_13174_514" x1="128.098" y1="-14.419" x2="3.67896" y2="-0.488753" gradientUnits="userSpaceOnUse">
<stop offset="0.480311" stop-color="#D82028"/>
<stop offset="0.753577" stop-color="#B51B22"/>
<stop offset="1" stop-color="#721115"/>
</linearGradient>
</defs>
</svg>
