<svg width="131" height="131" viewBox="0 0 131 131" fill="none" xmlns="http://www.w3.org/2000/svg">
<path d="M46.3249 81.2557C48.4536 81.2557 50.1785 82.9696 50.1785 85.0765C50.1763 85.5804 50.0749 86.079 49.8801 86.5437C49.6853 87.0084 49.4008 87.4302 49.043 87.785C48.6852 88.1398 48.2609 88.4207 47.7946 88.6115C47.3282 88.8024 46.8288 88.8995 46.3249 88.8973H30.7413C30.237 88.9002 29.737 88.8036 29.27 88.6131C28.803 88.4226 28.3781 88.1418 28.0197 87.787C27.6613 87.4321 27.3763 87.0101 27.1812 86.545C26.986 86.0799 26.8844 85.5809 26.8823 85.0765C26.8823 82.9696 28.6126 81.2557 30.7413 81.2557H46.3249ZM50.0911 67.1022C52.2199 67.1022 53.9447 68.8216 53.9447 70.923C53.9426 71.4274 53.841 71.9264 53.6458 72.3915C53.4507 72.8566 53.1657 73.2787 52.8073 73.6335C52.4489 73.9884 52.024 74.2691 51.557 74.4596C51.09 74.6502 50.59 74.7468 50.0857 74.7439H30.8287C30.3248 74.746 29.8254 74.6489 29.359 74.4581C28.8926 74.2672 28.4684 73.9864 28.1105 73.6316C27.7527 73.2768 27.4683 72.855 27.2734 72.3902C27.0786 71.9255 26.9772 71.427 26.9751 70.923C26.9751 68.8161 28.6999 67.1022 30.8287 67.1022H50.0911ZM71.1821 48.2164C71.198 45.1647 72.4244 42.2441 74.592 40.0959C76.7596 37.9478 79.6912 36.7477 82.7429 36.7593C85.7955 36.7477 88.7279 37.9485 90.8956 40.0979C93.0634 42.2472 94.2892 45.1692 94.3036 48.2218C94.2863 51.2751 93.0601 54.1971 90.8935 56.3484C88.7268 58.4997 85.7962 59.7051 82.7429 59.7007C79.6891 59.7036 76.7584 58.4971 74.5919 56.3449C72.4254 54.1927 71.1994 51.2701 71.1821 48.2164ZM105.346 84.0176C105.892 87.3963 103.283 90.4584 99.8602 90.4475H65.6255C64.8216 90.4491 64.0268 90.2758 63.2965 89.9398C62.5661 89.6037 61.9175 89.1128 61.3957 88.5012C60.8739 87.8895 60.4913 87.1717 60.2745 86.3976C60.0576 85.6234 60.0117 84.8113 60.1399 84.0176C61.8593 73.4175 67.7325 64.8643 75.4014 61.4747C77.6472 62.7221 80.1739 63.3767 82.7429 63.3767C85.3119 63.3767 87.8385 62.7221 90.0843 61.4747C97.7533 64.8643 103.632 73.4284 105.346 84.0176ZM57.7928 60.6013C12.052 60.6013 56.9905 60.5904 30.8232 60.5904C30.3188 60.5933 29.8189 60.4967 29.3518 60.3062C28.8848 60.1157 28.46 59.8349 28.1016 59.4801C27.7431 59.1252 27.4582 58.7031 27.263 58.2381C27.0679 57.773 26.9663 57.274 26.9642 56.7696C26.9642 54.6627 28.6945 52.9488 30.8232 52.9488L57.7928 52.9542C59.9216 52.9542 61.6519 54.6681 61.6464 56.7805C61.6464 57.285 61.5465 57.7846 61.3525 58.2503C61.1584 58.716 60.874 59.1387 60.5158 59.4939C60.1575 59.8491 59.7324 60.1299 59.2651 60.32C58.7977 60.51 58.2973 60.6057 57.7928 60.6013ZM30.8287 46.4424C30.3237 46.4475 29.8227 46.3524 29.3548 46.1626C28.8868 45.9729 28.4611 45.6922 28.1022 45.3369C27.7433 44.9816 27.4585 44.5587 27.2641 44.0926C27.0697 43.6266 26.9696 43.1266 26.9696 42.6216C26.9696 40.5147 28.6999 38.8008 30.8287 38.8008H57.7928C59.9161 38.8008 61.641 40.5092 61.641 42.6216C61.6352 43.6383 61.2261 44.6112 60.5036 45.3266C59.781 46.042 58.8041 46.4413 57.7874 46.437L30.8287 46.4424ZM73.4528 101.664C74.4026 101.664 75.314 101.289 75.9886 100.621C76.6633 99.9523 77.0467 99.0444 77.0553 98.0946H115.591V29.3196H15.4143V98.0892H53.9447C53.9447 100.06 55.5549 101.659 57.5472 101.659L73.4528 101.664ZM131 98.0946V103.318C131 106.621 128.293 109.301 124.963 109.301H6.03692C2.70733 109.301 0 106.626 0 103.318V98.0946H7.71263V29.2378C7.71263 25.073 11.1132 21.6943 15.3215 21.6943H115.684C119.887 21.6943 123.293 25.073 123.293 29.2378V98.0946H131Z" fill="url(#paint0_linear_13174_435)"/>
<defs>
<linearGradient id="paint0_linear_13174_435" x1="155.415" y1="10.8978" x2="-1.48391" y2="41.2071" gradientUnits="userSpaceOnUse">
<stop offset="0.480311" stop-color="#D82028"/>
<stop offset="0.753577" stop-color="#B51B22"/>
<stop offset="1" stop-color="#721115"/>
</linearGradient>
</defs>
</svg>
