<svg width="126" height="126" viewBox="0 0 126 126" fill="none" xmlns="http://www.w3.org/2000/svg">
<path d="M42 89.25C43.4875 89.25 44.7353 88.746 45.7433 87.738C46.7513 86.73 47.2535 85.484 47.25 84C47.2465 82.516 46.7425 81.27 45.738 80.262C44.7335 79.254 43.4875 78.75 42 78.75C40.5125 78.75 39.2665 79.254 38.262 80.262C37.2575 81.27 36.7535 82.516 36.75 84C36.7465 85.484 37.2505 86.7317 38.262 87.7432C39.2735 88.7547 40.5195 89.257 42 89.25ZM42 68.25C43.4875 68.25 44.7353 67.746 45.7433 66.738C46.7513 65.73 47.2535 64.484 47.25 63C47.2465 61.516 46.7425 60.27 45.738 59.262C44.7335 58.254 43.4875 57.75 42 57.75C40.5125 57.75 39.2665 58.254 38.262 59.262C37.2575 60.27 36.7535 61.516 36.75 63C36.7465 64.484 37.2505 65.7318 38.262 66.7433C39.2735 67.7548 40.5195 68.257 42 68.25ZM42 47.25C43.4875 47.25 44.7353 46.746 45.7433 45.738C46.7513 44.73 47.2535 43.484 47.25 42C47.2465 40.516 46.7425 39.27 45.738 38.262C44.7335 37.254 43.4875 36.75 42 36.75C40.5125 36.75 39.2665 37.254 38.262 38.262C37.2575 39.27 36.7535 40.516 36.75 42C36.7465 43.484 37.2505 44.7318 38.262 45.7433C39.2735 46.7548 40.5195 47.257 42 47.25ZM57.75 89.25H89.25V78.75H57.75V89.25ZM57.75 68.25H89.25V57.75H57.75V68.25ZM57.75 47.25H89.25V36.75H57.75V47.25ZM26.25 110.25C23.3625 110.25 20.8915 109.223 18.837 107.168C16.7825 105.114 15.7535 102.641 15.75 99.75V26.25C15.75 23.3625 16.779 20.8915 18.837 18.837C20.895 16.7825 23.366 15.7535 26.25 15.75H99.75C102.637 15.75 105.11 16.779 107.168 18.837C109.226 20.895 110.254 23.366 110.25 26.25V99.75C110.25 102.637 109.223 105.11 107.168 107.168C105.114 109.226 102.641 110.254 99.75 110.25H26.25ZM26.25 99.75H99.75V26.25H26.25V99.75Z" fill="url(#paint0_linear_13174_442)"/>
<defs>
<linearGradient id="paint0_linear_13174_442" x1="127.862" y1="4.10386" x2="12.3831" y2="19.0223" gradientUnits="userSpaceOnUse">
<stop offset="0.480311" stop-color="#D82028"/>
<stop offset="0.753577" stop-color="#B51B22"/>
<stop offset="1" stop-color="#721115"/>
</linearGradient>
</defs>
</svg>
