<svg width="133" height="133" viewBox="0 0 133 133" fill="none" xmlns="http://www.w3.org/2000/svg">
<path d="M120.055 56.8153L70.1798 12.482C69.1656 11.5814 67.8564 11.084 66.5001 11.084C65.1438 11.084 63.8346 11.5814 62.8205 12.482L12.9455 56.8153C11.8461 57.7912 11.1794 59.1639 11.0921 60.6313C11.0048 62.0988 11.504 63.5408 12.48 64.6401C13.4559 65.7395 14.8285 66.4062 16.296 66.4935C17.7634 66.5808 19.2054 66.0815 20.3048 65.1056L22.1668 63.4487V116.377C22.1668 117.847 22.7506 119.256 23.7899 120.296C24.8292 121.335 26.2387 121.919 27.7085 121.919H105.292C106.762 121.919 108.171 121.335 109.21 120.296C110.25 119.256 110.833 117.847 110.833 116.377V63.4487L112.695 65.1056C113.795 66.0815 115.237 66.5808 116.704 66.4935C117.431 66.4502 118.142 66.2643 118.797 65.9463C119.451 65.6283 120.037 65.1845 120.52 64.6401C121.004 64.0958 121.375 63.4616 121.613 62.7737C121.851 62.0859 121.951 61.3579 121.908 60.6313C121.865 59.9047 121.679 59.1937 121.361 58.539C121.043 57.8842 120.599 57.2985 120.055 56.8153ZM50.8948 110.835C52.0233 107.596 54.132 104.788 56.9282 102.801C59.7245 100.814 63.0698 99.7469 66.5001 99.7469C69.9304 99.7469 73.2757 100.814 76.072 102.801C78.8683 104.788 80.9769 107.596 82.1054 110.835H50.8948ZM58.1876 80.3563C58.1876 78.7122 58.6751 77.1051 59.5885 75.7381C60.5019 74.3711 61.8002 73.3057 63.3191 72.6766C64.838 72.0474 66.5093 71.8828 68.1218 72.2035C69.7343 72.5243 71.2154 73.316 72.3779 74.4785C73.5405 75.641 74.3322 77.1221 74.6529 78.7346C74.9736 80.3471 74.809 82.0184 74.1799 83.5374C73.5507 85.0563 72.4853 86.3545 71.1183 87.2679C69.7513 88.1813 68.1442 88.6688 66.5001 88.6688C64.2955 88.6688 62.1812 87.793 60.6223 86.2341C59.0634 84.6752 58.1876 82.5609 58.1876 80.3563ZM99.7501 110.835H93.6487C92.8824 107.161 91.3776 103.681 89.2257 100.606C87.0737 97.5312 84.3195 94.9254 81.1301 92.947C84.1839 89.4614 85.8763 84.9903 85.896 80.3563C85.896 75.2122 83.8525 70.2788 80.215 66.6414C76.5776 63.004 71.6442 60.9605 66.5001 60.9605C61.356 60.9605 56.4226 63.004 52.7852 66.6414C49.1478 70.2788 47.1043 75.2122 47.1043 80.3563C47.1239 84.9903 48.8163 89.4614 51.8701 92.947C48.6797 94.9248 45.9244 97.5304 43.7715 100.605C41.6186 103.68 40.1129 107.161 39.346 110.835H33.2501V53.5956L66.5001 24.0419L99.7501 53.5956V110.835Z" fill="url(#paint0_linear_13174_481)"/>
<defs>
<linearGradient id="paint0_linear_13174_481" x1="142.575" y1="-2.57525" x2="7.13349" y2="14.9222" gradientUnits="userSpaceOnUse">
<stop offset="0.480311" stop-color="#D82028"/>
<stop offset="0.753577" stop-color="#B51B22"/>
<stop offset="1" stop-color="#721115"/>
</linearGradient>
</defs>
</svg>
