<svg width="129" height="129" viewBox="0 0 129 129" fill="none" xmlns="http://www.w3.org/2000/svg">
<path d="M83.2695 40.312H83.3125M99.3945 40.312H99.4375M118.25 39.1456C118.25 53.3464 106.215 64.8596 91.375 64.8596C89.6263 64.8596 87.8938 64.6984 86.1773 64.3759C84.9411 64.1448 84.323 64.0319 83.893 64.0964C83.463 64.1609 82.8502 64.4834 81.6355 65.1338C78.1575 66.9875 74.155 67.6107 70.2781 66.9021C71.76 65.0711 72.7646 62.9011 73.2021 60.5865C73.4708 59.1621 72.8043 57.7808 71.8046 56.7703C67.14 52.089 64.5145 45.7541 64.5 39.1456C64.5 24.9503 76.5346 13.437 91.375 13.437C106.215 13.437 118.25 24.9503 118.25 39.1456ZM40.3232 115.562H25.3592C23.6231 115.562 21.8762 115.315 20.2798 114.632C15.0876 112.402 12.4485 109.451 11.223 107.607C10.8904 107.096 10.727 106.494 10.7559 105.885C10.7848 105.276 11.0047 104.692 11.3842 104.215C17.4042 96.2174 31.3792 91.3906 40.3501 91.3906C49.3156 91.3906 63.2691 96.2174 69.2891 104.215C70.047 105.221 70.1491 106.559 69.4503 107.607C68.2195 109.451 65.5803 112.402 60.3881 114.632C58.7749 115.281 57.0472 115.598 55.3087 115.562H40.3232ZM55.2872 63.3654C55.2844 65.3248 54.8957 67.2646 54.1432 69.0738C53.3907 70.883 52.2893 72.5263 50.9018 73.9098C49.5142 75.2934 47.8678 76.3901 46.0564 77.1373C44.245 77.8846 42.3042 78.2677 40.3447 78.2649C36.3893 78.2677 32.5946 76.6999 29.7946 73.906C26.9947 71.1121 25.4187 67.3208 25.413 63.3654C25.4151 61.4059 25.8031 59.4661 26.5549 57.6566C27.3067 55.8471 28.4076 54.2034 29.7946 52.8194C31.1817 51.4353 32.8277 50.338 34.6388 49.5901C36.45 48.8422 38.3906 48.4584 40.3501 48.4605C42.3095 48.4584 44.2502 48.8422 46.0613 49.5901C47.8724 50.338 49.5185 51.4353 50.9056 52.8194C52.2926 54.2034 53.3934 55.8471 54.1453 57.6566C54.8971 59.4661 55.2851 61.4059 55.2872 63.3654Z" stroke="url(#paint0_linear_13174_428)" stroke-width="8.0625" stroke-linecap="round" stroke-linejoin="round"/>
<defs>
<linearGradient id="paint0_linear_13174_428" x1="138.285" y1="0.85084" x2="7.15499" y2="18.6818" gradientUnits="userSpaceOnUse">
<stop offset="0.480311" stop-color="#D82028"/>
<stop offset="0.753577" stop-color="#B51B22"/>
<stop offset="1" stop-color="#721115"/>
</linearGradient>
</defs>
</svg>
