<svg width="134" height="134" viewBox="0 0 134 134" fill="none" xmlns="http://www.w3.org/2000/svg">
<path d="M120.622 41.5509C119.973 41.1693 119.226 40.9836 118.473 41.0163C117.721 41.049 116.993 41.2986 116.379 41.7352L96.6698 54.6494C95.8601 55.172 95.1979 55.8935 94.7463 56.7448C94.2948 57.5962 94.0689 58.549 94.0903 59.5125V74.487C94.0903 76.3574 95.0115 78.2278 96.6698 79.3557L116.379 92.2643C117.122 92.6384 117.859 93.0181 118.596 93.0181C119.308 93.0081 120.007 92.8139 120.622 92.4542C121.275 92.0664 121.82 91.5205 122.207 90.8667C122.593 90.2129 122.808 89.4723 122.833 88.7133V45.2862C122.836 44.5212 122.632 43.7698 122.243 43.1112C121.854 42.4527 121.294 41.9173 120.622 41.5509ZM114.536 81.0307L102.382 72.9851V60.819L114.542 52.7734L114.536 81.0307ZM64.4205 36.8721H15.4044C14.2767 36.8939 13.2022 37.3558 12.4104 38.1591C11.6186 38.9623 11.1722 40.0433 11.1666 41.1712V76.3574C11.1666 87.7753 20.5634 97.1274 32.1711 97.1274H81.1928C82.3195 97.1041 83.3926 96.6416 84.1832 95.8385C84.9738 95.0354 85.4194 93.9552 85.425 92.8282V57.6421C85.425 46.2242 76.0282 36.8721 64.4205 36.8721ZM77.1337 88.7077H32.1711C25.1696 88.7077 19.4579 83.0965 19.4579 76.3574V45.2917H64.4205C71.422 45.2917 77.1337 50.903 77.1337 57.6421V88.7077Z" fill="url(#paint0_linear_13174_403)"/>
<defs>
<linearGradient id="paint0_linear_13174_403" x1="143.645" y1="29.4462" x2="12.4317" y2="60.8604" gradientUnits="userSpaceOnUse">
<stop offset="0.480311" stop-color="#D82028"/>
<stop offset="0.753577" stop-color="#B51B22"/>
<stop offset="1" stop-color="#721115"/>
</linearGradient>
</defs>
</svg>
