<svg width="128" height="128" viewBox="0 0 128 128" fill="none" xmlns="http://www.w3.org/2000/svg">
<path d="M111.696 89.7873C108.773 72.3394 100.419 56.2587 87.8239 43.8353C85.0666 41.1527 83.6906 39.814 80.6452 38.5767C77.5999 37.334 74.9812 37.334 69.7492 37.334H58.2506C53.0186 37.334 50.3999 37.334 47.3546 38.5767C44.3146 39.814 42.9279 41.1527 40.1759 43.8353C27.581 56.2587 19.2271 72.3394 16.3039 89.7873C13.7066 105.457 28.1599 117.334 44.3092 117.334H83.6906C99.8452 117.334 114.304 105.457 111.691 89.7873" stroke="url(#paint0_linear_13174_486)" stroke-width="8" stroke-linecap="round" stroke-linejoin="round"/>
<path d="M72.6773 68.9007C71.5253 64.6393 65.6533 60.7994 58.608 63.674C51.5626 66.5487 50.448 75.7914 61.0986 76.778C65.92 77.2207 69.056 76.2607 71.9306 78.9753C74.8106 81.6847 75.344 89.2313 67.9893 91.2633C60.6453 93.2953 53.3653 90.122 52.576 85.61M63.1573 58.6233V62.682M63.1573 91.8874V95.962M38.704 23.6953C37.6 22.0953 36.0053 19.9193 39.3013 19.4287C42.688 18.9167 46.2026 21.2313 49.648 21.1887C52.7573 21.1407 54.3413 19.7593 56.048 17.786C57.84 15.7113 60.6133 10.666 64 10.666C67.3866 10.666 70.16 15.7113 71.952 17.786C73.6586 19.7593 75.2426 21.146 78.352 21.1833C81.7973 21.2367 85.312 18.9167 88.6986 19.4233C91.9946 19.9193 90.4 22.09 89.296 23.69L84.3253 30.938C82.192 34.0314 81.1306 35.578 78.9013 36.458C76.672 37.338 73.7973 37.3327 68.0426 37.3327H59.9573C54.1973 37.3327 51.3226 37.3327 49.0986 36.458C46.8746 35.5833 45.808 34.026 43.6746 30.9327L38.704 23.6953Z" stroke="url(#paint1_linear_13174_486)" stroke-width="8" stroke-linecap="round" stroke-linejoin="round"/>
<defs>
<linearGradient id="paint0_linear_13174_486" x1="129.89" y1="27.4748" x2="13.4209" y2="45.5299" gradientUnits="userSpaceOnUse">
<stop offset="0.480311" stop-color="#D82028"/>
<stop offset="0.753577" stop-color="#B51B22"/>
<stop offset="1" stop-color="#721115"/>
</linearGradient>
<linearGradient id="paint1_linear_13174_486" x1="100.608" y1="0.154174" x2="34.7739" y2="5.47226" gradientUnits="userSpaceOnUse">
<stop offset="0.480311" stop-color="#D82028"/>
<stop offset="0.753577" stop-color="#B51B22"/>
<stop offset="1" stop-color="#721115"/>
</linearGradient>
</defs>
</svg>
