<svg width="119" height="119" viewBox="0 0 119 119" fill="none" xmlns="http://www.w3.org/2000/svg">
<g clip-path="url(#clip0_13174_449)">
<path d="M66.9377 63.2188C66.9377 69.3621 71.5117 74.375 77.0527 74.375C82.7201 74.375 87.0933 69.3844 87.1677 63.2188C87.2421 57.0531 82.7424 52.0625 77.0527 52.0625C71.3407 52.0625 66.9377 57.0977 66.9377 63.2188ZM41.8733 74.375C36.3175 74.375 31.7583 69.3844 31.7583 63.2188C31.7583 57.0531 36.1911 52.0625 41.8733 52.0625C47.5556 52.0625 52.1371 57.0977 52.0627 63.2188C51.966 69.3621 47.5853 74.375 41.9477 74.375H41.8733Z" fill="url(#paint0_linear_13174_449)"/>
<path fill-rule="evenodd" clip-rule="evenodd" d="M98.9185 20.2323C100.147 20.7881 101.201 21.6673 101.968 22.7759C114.686 41.1465 121.082 62.1203 118.702 86.2178C118.6 87.2605 118.279 88.2699 117.76 89.1799C117.241 90.0899 116.536 90.88 115.69 91.4984C107.063 97.8277 97.3195 102.655 87.0557 105.704C85.6063 106.141 84.0574 106.12 82.6201 105.645C81.1827 105.17 79.9268 104.263 79.0232 103.049C77.2246 100.647 75.5729 98.1384 74.0773 95.5369C64.5868 97.5333 54.7847 97.5333 45.2942 95.5369C43.8182 98.1487 42.1683 100.658 40.3557 103.049C39.44 104.27 38.171 105.179 36.7207 105.654C35.2705 106.129 33.7093 106.147 32.2488 105.704C21.9716 102.616 12.2904 97.8136 3.61442 91.4984C2.76785 90.8792 2.06183 90.0879 1.5427 89.1766C1.02356 88.2652 0.703062 87.2543 0.602231 86.2103C-1.39846 65.4597 2.66242 44.2628 17.3366 22.8428C18.1027 21.7198 19.1662 20.8273 20.4083 20.262C27.8384 16.9003 35.6552 14.5054 43.762 13.1443C46.8486 12.6237 49.9352 14.0963 51.497 16.8184L52.159 18.0159C57.1669 17.5845 62.1996 17.5845 67.2571 18.0159L67.9116 16.8184C68.6651 15.4836 69.8127 14.4142 71.1973 13.7565C72.5819 13.0988 74.1358 12.885 75.6466 13.1443C83.6791 14.4905 91.5629 16.8779 99.0004 20.2471L98.9185 20.2323ZM71.6229 26.0038C63.7076 24.8363 55.6639 24.8363 47.7485 26.0038C46.9277 24.1128 46.0092 22.2658 44.9967 20.4703C37.574 21.7198 30.3448 23.9287 23.5023 27.0301C9.89167 46.9626 6.24729 66.3745 8.03229 85.4889C15.9904 91.3125 24.9154 95.7526 34.361 98.5789C35.59 96.9505 36.7344 95.2599 37.7897 93.5139C38.5731 92.2248 39.3095 90.9108 39.9987 89.5721C36.9182 88.4357 33.944 87.0295 31.1109 85.3699C31.8546 84.8294 32.581 84.289 33.29 83.7485C37.7696 85.8282 42.4774 87.3759 47.3172 88.3598C57.5689 90.4104 68.1714 89.8554 78.1531 86.7458C80.7982 85.9255 83.3828 84.9214 85.888 83.7411C86.6021 84.3212 87.3284 84.8617 88.0672 85.3624C87.3739 85.7619 86.6747 86.1512 85.9699 86.5301C83.7674 87.6879 81.4945 88.7063 79.1646 89.5795C80.3258 91.812 81.6121 93.9773 83.0172 96.065C83.5973 96.9079 84.1948 97.7434 84.8096 98.5714C94.2552 95.7452 103.18 91.3199 111.138 85.4814C113.303 63.3177 107.442 44.0546 95.6684 27.0227C88.8259 23.9213 81.6115 21.7272 74.174 20.4851C73.1625 22.28 72.2452 24.1245 71.4221 26.0186L71.6229 26.0038Z" fill="url(#paint1_linear_13174_449)"/>
</g>
<defs>
<linearGradient id="paint0_linear_13174_449" x1="97.4957" y1="49.3127" x2="35.0784" y2="69.3374" gradientUnits="userSpaceOnUse">
<stop offset="0.480311" stop-color="#D82028"/>
<stop offset="0.753577" stop-color="#B51B22"/>
<stop offset="1" stop-color="#721115"/>
</linearGradient>
<linearGradient id="paint1_linear_13174_449" x1="141.384" y1="1.57749" x2="-2.6046" y2="25.3962" gradientUnits="userSpaceOnUse">
<stop offset="0.480311" stop-color="#D82028"/>
<stop offset="0.753577" stop-color="#B51B22"/>
<stop offset="1" stop-color="#721115"/>
</linearGradient>
<clipPath id="clip0_13174_449">
<rect width="119" height="119" fill="white"/>
</clipPath>
</defs>
</svg>
